<svg width="56" height="56" viewBox="0 0 56 56" fill="none" xmlns="http://www.w3.org/2000/svg">
<g clip-path="url(#clip0_421_149)">
<rect width="56" height="56" rx="28" fill="#5578F8"/>
<path d="M29.8419 11.4765C31.8612 11.4765 42.185 13.6343 45.3821 32.0944C46.3769 39.3003 47.4805 42.8241 47.8913 43.705C47.9457 43.705 47.9903 43.7001 48.0299 43.7001C48.0942 43.997 48.0348 44.0168 47.8913 43.705C45.4563 43.8287 31.3514 44.868 20.983 43.7001C12.5844 42.7548 3.43848 35.1134 3.43848 35.1134C11.753 28.6251 15.1629 22.1467 16.4299 18.1874C20.0576 10.4768 28.8076 11.4765 29.8419 11.4765Z" fill="black"/>
<path d="M19.5827 36.039C13.0549 33.5249 14.3812 23.2654 17.6526 19.3259C25.5811 19.3754 30.2728 14.0799 30.1342 14.5451C28.6495 19.5981 29.0504 23.1961 30.055 25.7251C30.055 25.7251 31.8813 22.6764 33.8015 25.3242C34.8755 27.3187 32.584 29.5755 32.584 29.5755C32.584 29.5755 31.9654 31.7976 32.584 35.4699C33.8758 39.5826 37.0778 41.1415 37.058 41.1613C32.8909 46.4965 29.283 46.6697 25.294 45.0414L23.2253 36.0143C22.666 36.1875 20.9091 36.5537 19.5827 36.039Z" fill="#FF6B6B"/>
<path d="M32.6386 25.5518C31.921 25.2647 31.1291 25.7448 30.8223 26.022C30.8223 26.022 31.6983 25.8042 32.2575 25.8784C32.792 25.9477 33.0593 26.3931 33.0593 26.3931C33.089 26.1902 33.0395 25.7399 32.6386 25.5518Z" fill="#E34545"/>
<path d="M31.3319 30.1346C30.7083 30.2187 30.3124 29.9119 30.1936 29.7485C30.1887 29.9663 30.2579 30.4117 30.54 30.4612C30.8221 30.5107 31.1884 30.2632 31.3319 30.1346Z" fill="#E34545"/>
<path d="M23.9926 30.5257C25.0148 30.5257 25.8435 29.697 25.8435 28.6747C25.8435 27.6524 25.0148 26.8237 23.9926 26.8237C22.9703 26.8237 22.1416 27.6524 22.1416 28.6747C22.1416 29.697 22.9703 30.5257 23.9926 30.5257Z" fill="#E34545"/>
<path d="M17.0982 25.5666C16.9299 26.5762 15.9549 27.2493 14.9453 27.081C14.9453 27.081 14.9948 26.2347 15.1878 25.2251C15.3561 24.2155 15.6382 23.4385 15.6382 23.4385C16.6429 23.6067 17.2664 24.5619 17.0982 25.5666Z" fill="#E34545"/>
<path d="M23.2256 36.0142C25.1656 35.3461 29.5654 33.307 31.9113 30.5801L32.0498 30.4167C32.0053 30.4712 31.9608 30.5256 31.9113 30.5801L24.1115 39.8596L23.2256 36.0142Z" fill="#E34545"/>
<path d="M19.4932 28.4124C19.4932 28.4124 17.7412 27.8185 17.7412 26.9177C17.7412 26.3436 19.7258 23.29 19.7258 23.29" stroke="black" stroke-width="0.667385" stroke-linecap="round"/>
<path d="M31.228 31.2827C30.3669 32.3864 27.8775 34.6827 24.7744 35.7468" stroke="black" stroke-width="0.591734" stroke-linecap="round"/>
<path d="M24.4431 24.8418C24.7626 24.5392 24.8341 24.096 24.6029 23.8519C24.3717 23.6078 23.9253 23.6553 23.6058 23.9579C23.2863 24.2605 23.2148 24.7037 23.446 24.9478C23.6772 25.1919 24.1236 25.1444 24.4431 24.8418Z" fill="black"/>
<path d="M18.1494 22.744C18.389 22.3749 18.3547 21.9273 18.0728 21.7442C17.7908 21.5611 17.3679 21.7119 17.1283 22.081C16.8886 22.4501 16.9229 22.8977 17.2049 23.0808C17.4869 23.2639 17.9097 23.1131 18.1494 22.744Z" fill="black"/>
<path d="M58.0123 55.6274C51.0935 46.6398 40.8934 42.1361 36.7015 41.0127C29.4213 45.066 26.051 43.1606 24.8286 42.4677C24.5613 42.3143 24.3931 42.2203 24.3139 42.2648C24.2347 42.3044 24.0169 42.3836 23.6853 42.5073C22.1115 43.0913 18.0186 44.6107 14.4652 47.0011C10.6939 49.54 7.1306 53.524 3.90873 57.1319C0.380024 61.0763 -2.73791 64.5655 -5.2669 65.194C-10.0527 66.3867 -16.9418 56.642 -18.6493 54.2317C-18.8472 53.9546 -18.9759 53.7715 -19.0205 53.717L-25.2217 66.5253C-20.6933 70.3064 -10.7555 77.9825 -7.24654 78.4328C-2.19846 79.0812 1.60245 75.3694 5.26479 71.7961C7.4325 69.6779 9.55071 67.6141 11.8471 66.5253C16.7912 64.1893 16.7912 66.5253 16.7912 66.5253L9.82786 91.1273L47.0105 97.7541V91.1273C52.4792 89.8554 64.1047 85.8466 66.891 80.0067C70.3702 72.7018 66.6633 66.8569 58.0123 55.6274ZM46.4512 79.2049L46.0305 62.4967C48.5892 63.9023 53.9441 67.5597 54.8894 70.935C55.8347 74.3102 49.6582 77.8538 46.4512 79.2049Z" fill="#FFB905"/>
<path d="M24.9717 42.5074C26.496 43.4329 30.876 44.492 36.2061 41.2998" stroke="black" stroke-width="0.339367" stroke-linecap="round"/>
</g>
<defs>
<clipPath id="clip0_421_149">
<rect width="56" height="56" rx="28" fill="white"/>
</clipPath>
</defs>
</svg>
