<svg width="32" height="32" viewBox="0 0 32 32" fill="none" xmlns="http://www.w3.org/2000/svg">
<mask id="mask0_421_153" style="mask-type:alpha" maskUnits="userSpaceOnUse" x="0" y="0" width="32" height="32">
<rect width="32" height="32" fill="#D9D9D9"/>
</mask>
<g mask="url(#mask0_421_153)">
<path d="M15.9997 30.0001C15.7108 30.0001 15.433 29.9556 15.1663 29.8667C14.8997 29.7779 14.6441 29.6445 14.3997 29.4667L6.39967 23.4667C6.06634 23.2223 5.80523 22.9112 5.61634 22.5334C5.42745 22.1556 5.33301 21.7556 5.33301 21.3334V5.33341C5.33301 4.60008 5.59412 3.9723 6.11634 3.45008C6.63856 2.92786 7.26634 2.66675 7.99967 2.66675H23.9997C24.733 2.66675 25.3608 2.92786 25.883 3.45008C26.4052 3.9723 26.6663 4.60008 26.6663 5.33341V21.3334C26.6663 21.7556 26.5719 22.1556 26.383 22.5334C26.1941 22.9112 25.933 23.2223 25.5997 23.4667L17.5997 29.4667C17.3552 29.6445 17.0997 29.7779 16.833 29.8667C16.5663 29.9556 16.2886 30.0001 15.9997 30.0001ZM14.5997 16.2001L12.733 14.3334C12.4663 14.0667 12.1552 13.939 11.7997 13.9501C11.4441 13.9612 11.133 14.089 10.8663 14.3334C10.5997 14.6001 10.4608 14.9167 10.4497 15.2834C10.4386 15.6501 10.5663 15.9667 10.833 16.2334L13.6663 19.0667C13.933 19.3334 14.2441 19.4667 14.5997 19.4667C14.9552 19.4667 15.2663 19.3334 15.533 19.0667L21.1997 13.4001C21.4663 13.1334 21.5941 12.8223 21.583 12.4667C21.5719 12.1112 21.4441 11.8001 21.1997 11.5334C20.933 11.2667 20.6163 11.1279 20.2497 11.1167C19.883 11.1056 19.5663 11.2334 19.2997 11.5001L14.5997 16.2001Z" fill="#1C1B1F"/>
</g>
</svg>
