<svg width="48" height="48" viewBox="0 0 48 48" fill="none" xmlns="http://www.w3.org/2000/svg">
<path d="M28.7333 24.9334H16C15.7355 24.9334 15.514 24.8436 15.3353 24.6641C15.1562 24.4849 15.0666 24.2627 15.0666 23.9974C15.0666 23.7325 15.1562 23.5112 15.3353 23.3334C15.514 23.1556 15.7355 23.0667 16 23.0667H28.7333L23.3333 17.6667C23.1555 17.5036 23.0666 17.2963 23.0666 17.0447C23.0666 16.7927 23.1555 16.5778 23.3333 16.4C23.5111 16.2223 23.726 16.1334 23.978 16.1334C24.2295 16.1334 24.4368 16.2223 24.5999 16.4L30.7999 22.6C31.2 23 31.4 23.4667 31.4 24C31.4 24.5334 31.2 25.0001 30.7999 25.4001L24.5999 31.6C24.4222 31.7778 24.2111 31.8556 23.9666 31.8334C23.7222 31.8112 23.5111 31.7112 23.3333 31.5334C23.1555 31.3556 23.0666 31.1407 23.0666 30.8887C23.0666 30.6372 23.1555 30.4298 23.3333 30.2667L28.7333 24.9334ZM23.9886 47.2001C27.1962 47.2001 30.2124 46.5914 33.0373 45.3741C35.8622 44.1567 38.3193 42.5045 40.4086 40.4174C42.4984 38.3303 44.1526 35.8763 45.3713 33.0554C46.5904 30.234 47.2 27.2194 47.2 24.0114C47.2 20.8038 46.5913 17.7876 45.374 14.9627C44.1566 12.1378 42.5044 9.68072 40.4173 7.59138C38.3302 5.5016 35.8762 3.84738 33.0553 2.62872C30.2339 1.4096 27.2193 0.800049 24.0113 0.800049C20.8037 0.800049 17.7875 1.40872 14.9626 2.62605C12.1377 3.84338 9.68061 5.4956 7.59128 7.58272C5.5015 9.66983 3.84728 12.1238 2.62862 14.9447C1.4095 17.766 0.79995 20.7807 0.79995 23.9887C0.79995 27.1963 1.40862 30.2125 2.62595 33.0374C3.84328 35.8623 5.4955 38.3194 7.58261 40.4087C9.66973 42.4985 12.1237 44.1527 14.9446 45.3714C17.7659 46.5905 20.7806 47.2001 23.9886 47.2001ZM24 45.3334C18.0444 45.3334 13 43.2667 8.86662 39.1334C4.73328 35 2.66661 29.9556 2.66661 24C2.66661 18.0445 4.73328 13 8.86662 8.86672C13 4.73338 18.0444 2.66672 24 2.66672C29.9555 2.66672 35 4.73338 39.1333 8.86672C43.2666 13 45.3333 18.0445 45.3333 24C45.3333 29.9556 43.2666 35 39.1333 39.1334C35 43.2667 29.9555 45.3334 24 45.3334Z" fill="white"/>
</svg>
