<svg width="48" height="48" viewBox="0 0 48 48" fill="none" xmlns="http://www.w3.org/2000/svg">
<path d="M19.2667 24.9334H32C32.2645 24.9334 32.486 24.8436 32.6647 24.6641C32.8438 24.4849 32.9334 24.2627 32.9334 23.9974C32.9334 23.7325 32.8438 23.5112 32.6647 23.3334C32.486 23.1556 32.2645 23.0667 32 23.0667H19.2667L24.6667 17.6667C24.8445 17.5036 24.9334 17.2963 24.9334 17.0447C24.9334 16.7927 24.8445 16.5778 24.6667 16.4C24.4889 16.2223 24.274 16.1334 24.022 16.1334C23.7705 16.1334 23.5632 16.2223 23.4001 16.4L17.2001 22.6C16.8 23 16.6 23.4667 16.6 24C16.6 24.5334 16.8 25.0001 17.2001 25.4001L23.4001 31.6C23.5778 31.7778 23.7889 31.8556 24.0334 31.8334C24.2778 31.8112 24.4889 31.7112 24.6667 31.5334C24.8445 31.3556 24.9334 31.1407 24.9334 30.8887C24.9334 30.6372 24.8445 30.4298 24.6667 30.2667L19.2667 24.9334ZM24.0114 47.2001C20.8038 47.2001 17.7876 46.5914 14.9627 45.3741C12.1378 44.1567 9.68072 42.5045 7.59138 40.4174C5.5016 38.3303 3.84738 35.8763 2.62872 33.0554C1.4096 30.234 0.800049 27.2194 0.800049 24.0114C0.800049 20.8038 1.40872 17.7876 2.62605 14.9627C3.84338 12.1378 5.4956 9.68072 7.58272 7.59138C9.66983 5.5016 12.1238 3.84738 14.9447 2.62872C17.7661 1.4096 20.7807 0.800049 23.9887 0.800049C27.1963 0.800049 30.2125 1.40872 33.0374 2.62605C35.8623 3.84338 38.3194 5.4956 40.4087 7.58272C42.4985 9.66983 44.1527 12.1238 45.3714 14.9447C46.5905 17.766 47.2001 20.7807 47.2001 23.9887C47.2001 27.1963 46.5914 30.2125 45.3741 33.0374C44.1567 35.8623 42.5045 38.3194 40.4174 40.4087C38.3303 42.4985 35.8763 44.1527 33.0554 45.3714C30.2341 46.5905 27.2194 47.2001 24.0114 47.2001ZM24 45.3334C29.9556 45.3334 35 43.2667 39.1334 39.1334C43.2667 35 45.3334 29.9556 45.3334 24C45.3334 18.0445 43.2667 13 39.1334 8.86672C35 4.73338 29.9556 2.66672 24 2.66672C18.0445 2.66672 13 4.73338 8.86672 8.86672C4.73338 13 2.66672 18.0445 2.66672 24C2.66672 29.9556 4.73338 35 8.86672 39.1334C13 43.2667 18.0445 45.3334 24 45.3334Z" fill="white"/>
</svg>
