<svg width="24" height="24" viewBox="0 0 24 24" fill="none" xmlns="http://www.w3.org/2000/svg">
<mask id="mask0_105_13" style="mask-type:alpha" maskUnits="userSpaceOnUse" x="0" y="0" width="24" height="24">
<rect width="24" height="24" fill="#D9D9D9"/>
</mask>
<g mask="url(#mask0_105_13)">
<path d="M12 21.3251C11.7667 21.3251 11.5333 21.2835 11.3 21.2001C11.0667 21.1168 10.8583 20.9918 10.675 20.8251C9.59167 19.8251 8.63333 18.8501 7.8 17.9001C6.96667 16.9501 6.27083 16.0293 5.7125 15.1376C5.15417 14.246 4.72917 13.3876 4.4375 12.5626C4.14583 11.7376 4 10.9501 4 10.2001C4 7.70012 4.80417 5.70846 6.4125 4.22512C8.02083 2.74179 9.88333 2.00012 12 2.00012C14.1167 2.00012 15.9792 2.74179 17.5875 4.22512C19.1958 5.70846 20 7.70012 20 10.2001C20 10.9501 19.8542 11.7376 19.5625 12.5626C19.2708 13.3876 18.8458 14.246 18.2875 15.1376C17.7292 16.0293 17.0333 16.9501 16.2 17.9001C15.3667 18.8501 14.4083 19.8251 13.325 20.8251C13.1417 20.9918 12.9333 21.1168 12.7 21.2001C12.4667 21.2835 12.2333 21.3251 12 21.3251ZM12 12.0001C12.55 12.0001 13.0208 11.8043 13.4125 11.4126C13.8042 11.021 14 10.5501 14 10.0001C14 9.45012 13.8042 8.97929 13.4125 8.58762C13.0208 8.19596 12.55 8.00012 12 8.00012C11.45 8.00012 10.9792 8.19596 10.5875 8.58762C10.1958 8.97929 10 9.45012 10 10.0001C10 10.5501 10.1958 11.021 10.5875 11.4126C10.9792 11.8043 11.45 12.0001 12 12.0001Z" fill="white"/>
</g>
</svg>
