<svg width="179" height="53" viewBox="0 0 179 53" fill="none" xmlns="http://www.w3.org/2000/svg">
<g clip-path="url(#clip0_188_718)">
<path d="M172.632 53H6.2703C2.81361 53 0 50.1804 0 46.7288V6.26195C0 2.809 2.81361 0 6.2703 0H172.632C176.087 0 179 2.809 179 6.26195V46.7288C179 50.1804 176.087 53 172.632 53Z" fill="#A6A6A6"/>
<path d="M177.716 46.73C177.716 49.5337 175.444 51.8048 172.633 51.8048H6.27028C3.46065 51.8048 1.18005 49.5337 1.18005 46.73V6.26057C1.18005 3.4582 3.46065 1.1792 6.27028 1.1792H172.632C175.444 1.1792 177.715 3.4582 177.715 6.26057L177.716 46.73Z" fill="black"/>
<path d="M39.9474 26.2137C39.909 21.9432 43.4466 19.8656 43.6083 19.7689C41.6048 16.8499 38.4995 16.4511 37.4083 16.4193C34.8002 16.145 32.2703 17.9788 30.9417 17.9788C29.5867 17.9788 27.5407 16.4458 25.3357 16.4909C22.4983 16.5346 19.8437 18.1763 18.3879 20.7256C15.3833 25.9235 17.6241 33.5622 20.5027 37.7637C21.9427 39.8215 23.6253 42.119 25.8277 42.0382C27.9823 41.9494 28.7871 40.6655 31.3873 40.6655C33.9635 40.6655 34.7193 42.0382 36.9654 41.9865C39.2778 41.9494 40.7337 39.9195 42.1233 37.8432C43.7873 35.4847 44.4556 33.162 44.4821 33.0428C44.4277 33.0242 39.9912 31.3322 39.9474 26.2137Z" fill="white"/>
<path d="M35.7045 13.6555C36.8633 12.2072 37.6562 10.237 37.4361 8.23755C35.7588 8.31175 33.6612 9.39692 32.4533 10.8133C31.3846 12.0615 30.4299 14.1073 30.6766 16.0312C32.5607 16.1716 34.4952 15.0812 35.7045 13.6555Z" fill="white"/>
<path d="M71.1293 41.7427H68.1181L66.4687 36.5633H60.7354L59.1642 41.7427H56.2325L61.9128 24.1096H65.4212L71.1293 41.7427ZM65.9715 34.3903L64.4798 29.7859C64.322 29.3155 64.0263 28.2078 63.5901 26.4641H63.5371C63.3634 27.2141 63.0836 28.3218 62.6991 29.7859L61.2339 34.3903H65.9715Z" fill="white"/>
<path d="M85.737 35.2291C85.737 37.3915 85.1523 39.1008 83.9828 40.3555C82.9353 41.4725 81.6346 42.0303 80.0819 42.0303C78.406 42.0303 77.202 41.4288 76.4688 40.2257H76.4158V46.9236H73.5889V33.2138C73.5889 31.8543 73.5531 30.4591 73.4841 29.0281H75.9702L76.128 31.0434H76.1811C77.1238 29.525 78.5545 28.7671 80.4744 28.7671C81.9754 28.7671 83.2284 29.3594 84.2308 30.5452C85.2358 31.7324 85.737 33.2933 85.737 35.2291ZM82.8571 35.3325C82.8571 34.0949 82.5787 33.0747 82.0191 32.2717C81.4079 31.4343 80.5871 31.0156 79.5582 31.0156C78.8608 31.0156 78.227 31.2488 77.6608 31.7086C77.0933 32.1723 76.722 32.7779 76.5483 33.5278C76.4608 33.8776 76.4171 34.1638 76.4171 34.3891V36.5091C76.4171 37.4339 76.7008 38.2143 77.2683 38.8517C77.8358 39.489 78.573 39.807 79.48 39.807C80.5447 39.807 81.3734 39.3962 81.9661 38.5774C82.5601 37.7572 82.8571 36.676 82.8571 35.3325Z" fill="white"/>
<path d="M100.371 35.2291C100.371 37.3915 99.7865 39.1008 98.6157 40.3555C97.5695 41.4725 96.2688 42.0303 94.7161 42.0303C93.0401 42.0303 91.8362 41.4288 91.1043 40.2257H91.0512V46.9236H88.2244V33.2138C88.2244 31.8543 88.1886 30.4591 88.1196 29.0281H90.6057L90.7635 31.0434H90.8166C91.758 29.525 93.1886 28.7671 95.1099 28.7671C96.6095 28.7671 97.8625 29.3594 98.8676 30.5452C99.8687 31.7324 100.371 33.2933 100.371 35.2291ZM97.4913 35.3325C97.4913 34.0949 97.2115 33.0747 96.652 32.2717C96.0407 31.4343 95.2226 31.0156 94.1924 31.0156C93.4936 31.0156 92.8611 31.2488 92.2936 31.7086C91.7262 32.1723 91.3562 32.7779 91.1825 33.5278C91.0963 33.8776 91.0512 34.1638 91.0512 34.3891V36.5091C91.0512 37.4339 91.335 38.2143 91.8998 38.8517C92.4673 39.4877 93.2046 39.807 94.1141 39.807C95.1789 39.807 96.0076 39.3962 96.6003 38.5774C97.1943 37.7572 97.4913 36.676 97.4913 35.3325Z" fill="white"/>
<path d="M116.733 36.7979C116.733 38.2978 116.212 39.5181 115.166 40.4602C114.016 41.4897 112.416 42.0038 110.36 42.0038C108.461 42.0038 106.939 41.6381 105.786 40.9054L106.441 38.5509C107.682 39.3008 109.044 39.6771 110.528 39.6771C111.593 39.6771 112.421 39.436 113.017 38.9563C113.609 38.4767 113.905 37.8327 113.905 37.0298C113.905 36.3143 113.661 35.7114 113.172 35.2225C112.685 34.7335 111.872 34.2791 110.737 33.859C107.648 32.7076 106.105 31.0209 106.105 28.8028C106.105 27.3533 106.646 26.1648 107.729 25.2399C108.808 24.3137 110.248 23.8513 112.049 23.8513C113.654 23.8513 114.988 24.1309 116.053 24.6887L115.346 26.9916C114.352 26.451 113.227 26.1807 111.969 26.1807C110.975 26.1807 110.198 26.4258 109.641 26.9134C109.17 27.3493 108.934 27.8806 108.934 28.51C108.934 29.207 109.203 29.7833 109.744 30.2365C110.215 30.6552 111.07 31.1083 112.311 31.5973C113.829 32.2081 114.945 32.9223 115.662 33.7411C116.377 34.5573 116.733 35.5789 116.733 36.7979Z" fill="white"/>
<path d="M126.08 31.1482H122.964V37.3214C122.964 38.8915 123.513 39.6759 124.613 39.6759C125.118 39.6759 125.537 39.6322 125.869 39.5447L125.947 41.6899C125.39 41.8979 124.657 42.0026 123.749 42.0026C122.632 42.0026 121.76 41.6621 121.13 40.9823C120.503 40.3013 120.187 39.1591 120.187 37.5546V31.1455H118.331V29.0255H120.187V26.6975L122.964 25.8601V29.0255H126.08V31.1482Z" fill="white"/>
<path d="M140.138 35.2807C140.138 37.2351 139.579 38.8396 138.462 40.0944C137.292 41.3863 135.738 42.0302 133.8 42.0302C131.934 42.0302 130.447 41.4115 129.339 40.1739C128.23 38.9364 127.676 37.3742 127.676 35.4914C127.676 33.5211 128.246 31.9072 129.39 30.6525C130.532 29.3964 132.073 28.7683 134.01 28.7683C135.877 28.7683 137.379 29.3871 138.513 30.626C139.597 31.8277 140.138 33.3793 140.138 35.2807ZM137.205 35.3721C137.205 34.1995 136.955 33.1938 136.447 32.3551C135.854 31.3401 135.007 30.834 133.909 30.834C132.773 30.834 131.91 31.3415 131.317 32.3551C130.809 33.1951 130.559 34.2167 130.559 35.4251C130.559 36.5977 130.809 37.6034 131.317 38.4408C131.928 39.4558 132.782 39.9619 133.884 39.9619C134.963 39.9619 135.811 39.4452 136.422 38.4143C136.943 37.5597 137.205 36.5434 137.205 35.3721Z" fill="white"/>
<path d="M149.327 31.5125C149.047 31.4608 148.749 31.4343 148.436 31.4343C147.442 31.4343 146.673 31.8093 146.132 32.5606C145.661 33.2231 145.425 34.0605 145.425 35.0714V41.7428H142.599L142.626 33.0323C142.626 31.5668 142.59 30.2325 142.52 29.0294H144.982L145.085 31.4621H145.164C145.462 30.6261 145.933 29.953 146.577 29.4481C147.207 28.9937 147.887 28.7671 148.62 28.7671C148.882 28.7671 149.118 28.7856 149.327 28.8188V31.5125Z" fill="white"/>
<path d="M161.97 34.7838C161.97 35.29 161.937 35.7166 161.866 36.0651H153.386C153.419 37.3212 153.829 38.2818 154.616 38.9443C155.331 39.5366 156.255 39.8334 157.39 39.8334C158.646 39.8334 159.791 39.6333 160.822 39.2319L161.264 41.1929C160.061 41.7176 158.639 41.9786 156.999 41.9786C155.026 41.9786 153.477 41.3982 152.35 40.2389C151.226 39.0795 150.662 37.5226 150.662 35.5696C150.662 33.6523 151.186 32.0557 152.235 30.7823C153.333 29.4229 154.816 28.7432 156.683 28.7432C158.517 28.7432 159.905 29.4229 160.848 30.7823C161.595 31.8622 161.97 33.1978 161.97 34.7838ZM159.274 34.0511C159.293 33.2137 159.109 32.4903 158.725 31.8794C158.236 31.0937 157.484 30.7015 156.473 30.7015C155.548 30.7015 154.797 31.0844 154.222 31.8529C153.752 32.4638 153.472 33.1965 153.386 34.0498L159.274 34.0511Z" fill="white"/>
<path d="M65.0367 13.262C65.0367 14.8215 64.5686 15.9955 63.6338 16.7839C62.768 17.5113 61.5375 17.8757 59.9438 17.8757C59.1535 17.8757 58.4773 17.8412 57.9111 17.7723V9.25124C58.6497 9.13199 59.4452 9.07104 60.3044 9.07104C61.8226 9.07104 62.9669 9.40097 63.7386 10.0608C64.6031 10.8068 65.0367 11.8734 65.0367 13.262ZM63.5715 13.3004C63.5715 12.2895 63.3037 11.5143 62.768 10.9737C62.2323 10.4345 61.45 10.1642 60.4198 10.1642C59.9822 10.1642 59.6096 10.1933 59.3007 10.2543V16.7322C59.4717 16.7587 59.7847 16.7706 60.2395 16.7706C61.3029 16.7706 62.1236 16.4751 62.7017 15.8842C63.2798 15.2932 63.5715 14.432 63.5715 13.3004Z" fill="white"/>
<path d="M72.8052 14.6241C72.8052 15.5847 72.5307 16.3718 71.9817 16.9892C71.4063 17.6239 70.6439 17.9406 69.6919 17.9406C68.7743 17.9406 68.0438 17.6371 67.4988 17.0276C66.9552 16.4195 66.6833 15.6523 66.6833 14.7274C66.6833 13.7602 66.9631 12.9665 67.5253 12.3504C68.0875 11.7343 68.8433 11.4255 69.7953 11.4255C70.7128 11.4255 71.4501 11.729 72.0083 12.3371C72.5386 12.9281 72.8052 13.6913 72.8052 14.6241ZM71.3639 14.6691C71.3639 14.0928 71.2392 13.5985 70.9913 13.1865C70.6996 12.6883 70.2846 12.4392 69.7449 12.4392C69.1867 12.4392 68.7624 12.6883 68.4707 13.1865C68.2214 13.5985 68.0981 14.1007 68.0981 14.6943C68.0981 15.2707 68.2227 15.7649 68.4707 16.177C68.7717 16.6752 69.1907 16.9243 69.7317 16.9243C70.262 16.9243 70.6784 16.6712 70.978 16.1637C71.2353 15.7437 71.3639 15.2455 71.3639 14.6691Z" fill="white"/>
<path d="M83.2218 11.5527L81.2661 17.7988H79.9932L79.1831 15.0865C78.9776 14.4094 78.8105 13.7363 78.6805 13.0685H78.6554C78.5347 13.7549 78.3676 14.4267 78.1528 15.0865L77.2923 17.7988H76.0048L74.1658 11.5527H75.5938L76.3005 14.5221C76.4716 15.2243 76.6121 15.8934 76.7248 16.5268H76.75C76.8534 16.0047 77.0245 15.3396 77.2658 14.5353L78.1528 11.5541H79.2852L80.1351 14.4717C80.3406 15.1832 80.5077 15.8683 80.6363 16.5281H80.6747C80.7689 15.8855 80.9108 15.2005 81.099 14.4717L81.8575 11.5541H83.2218V11.5527Z" fill="white"/>
<path d="M90.4255 17.7989H89.0359V14.2214C89.0359 13.119 88.6169 12.5678 87.7763 12.5678C87.3639 12.5678 87.0311 12.7188 86.7726 13.0222C86.5167 13.3257 86.3867 13.6834 86.3867 14.0928V17.7975H84.9972V13.3376C84.9972 12.789 84.9799 12.1941 84.9468 11.5502H86.168L86.2329 12.5267H86.2714C86.4331 12.2233 86.6745 11.9728 86.9914 11.7728C87.3679 11.5396 87.7896 11.4216 88.251 11.4216C88.8344 11.4216 89.3197 11.6098 89.7055 11.9874C90.1855 12.4498 90.4255 13.1402 90.4255 14.0571V17.7989Z" fill="white"/>
<path d="M94.2574 17.7988H92.8691V8.68677H94.2574V17.7988Z" fill="white"/>
<path d="M102.438 14.6241C102.438 15.5847 102.164 16.3718 101.615 16.9892C101.04 17.6239 100.276 17.9406 99.3252 17.9406C98.4063 17.9406 97.6757 17.6371 97.1321 17.0276C96.5885 16.4195 96.3167 15.6523 96.3167 14.7274C96.3167 13.7602 96.5964 12.9665 97.1586 12.3504C97.7208 11.7343 98.4766 11.4255 99.4273 11.4255C100.346 11.4255 101.082 11.729 101.642 12.3371C102.172 12.9281 102.438 13.6913 102.438 14.6241ZM100.996 14.6691C100.996 14.0928 100.871 13.5985 100.623 13.1865C100.333 12.6883 99.9165 12.4392 99.3782 12.4392C98.8187 12.4392 98.3944 12.6883 98.104 13.1865C97.8547 13.5985 97.7314 14.1007 97.7314 14.6943C97.7314 15.2707 97.856 15.7649 98.104 16.177C98.405 16.6752 98.824 16.9243 99.365 16.9243C99.8953 16.9243 100.31 16.6712 100.61 16.1637C100.869 15.7437 100.996 15.2455 100.996 14.6691Z" fill="white"/>
<path d="M109.164 17.7988H107.916L107.812 17.0793H107.774C107.347 17.653 106.738 17.9406 105.948 17.9406C105.358 17.9406 104.881 17.7511 104.521 17.3748C104.195 17.0329 104.032 16.6076 104.032 16.1028C104.032 15.3396 104.35 14.7579 104.991 14.3551C105.63 13.9523 106.529 13.7549 107.686 13.7642V13.6476C107.686 12.8247 107.254 12.414 106.388 12.414C105.772 12.414 105.228 12.569 104.759 12.8764L104.476 11.9648C105.057 11.6057 105.774 11.4255 106.62 11.4255C108.254 11.4255 109.073 12.2868 109.073 14.0093V16.3095C109.073 16.9336 109.104 17.4304 109.164 17.7988ZM107.721 15.6523V14.689C106.188 14.6625 105.422 15.0825 105.422 15.9478C105.422 16.2737 105.509 16.5175 105.688 16.6805C105.867 16.8435 106.095 16.9243 106.367 16.9243C106.672 16.9243 106.957 16.8276 107.217 16.6354C107.478 16.442 107.639 16.1969 107.698 15.8961C107.713 15.8285 107.721 15.7464 107.721 15.6523Z" fill="white"/>
<path d="M117.059 17.7988H115.826L115.761 16.7958H115.723C115.329 17.559 114.658 17.9406 113.715 17.9406C112.962 17.9406 112.335 17.6451 111.838 17.0541C111.341 16.4632 111.093 15.696 111.093 14.7539C111.093 13.743 111.362 12.9241 111.903 12.2987C112.427 11.7157 113.068 11.4242 113.832 11.4242C114.671 11.4242 115.259 11.7064 115.593 12.2722H115.619V8.68677H117.01V16.116C117.01 16.7242 117.026 17.2847 117.059 17.7988ZM115.619 15.1647V14.1232C115.619 13.943 115.606 13.7973 115.581 13.686C115.503 13.3521 115.334 13.0712 115.079 12.8446C114.82 12.618 114.508 12.5041 114.149 12.5041C113.631 12.5041 113.225 12.7095 112.927 13.1215C112.631 13.5336 112.481 14.0596 112.481 14.7023C112.481 15.3197 112.623 15.8206 112.908 16.2061C113.209 16.6169 113.615 16.8223 114.123 16.8223C114.579 16.8223 114.943 16.6513 115.22 16.3082C115.488 15.9915 115.619 15.6099 115.619 15.1647Z" fill="white"/>
<path d="M128.944 14.6241C128.944 15.5847 128.669 16.3718 128.12 16.9892C127.545 17.6239 126.784 17.9406 125.83 17.9406C124.914 17.9406 124.184 17.6371 123.637 17.0276C123.094 16.4195 122.822 15.6523 122.822 14.7274C122.822 13.7602 123.102 12.9665 123.664 12.3504C124.226 11.7343 124.982 11.4255 125.935 11.4255C126.851 11.4255 127.59 11.729 128.147 12.3371C128.677 12.9281 128.944 13.6913 128.944 14.6241ZM127.504 14.6691C127.504 14.0928 127.379 13.5985 127.131 13.1865C126.838 12.6883 126.424 12.4392 125.883 12.4392C125.326 12.4392 124.902 12.6883 124.609 13.1865C124.36 13.5985 124.237 14.1007 124.237 14.6943C124.237 15.2707 124.361 15.7649 124.609 16.177C124.91 16.6752 125.329 16.9243 125.87 16.9243C126.4 16.9243 126.818 16.6712 127.118 16.1637C127.374 15.7437 127.504 15.2455 127.504 14.6691Z" fill="white"/>
<path d="M136.415 17.7989H135.027V14.2214C135.027 13.119 134.608 12.5678 133.766 12.5678C133.354 12.5678 133.021 12.7188 132.764 13.0222C132.506 13.3257 132.378 13.6834 132.378 14.0928V17.7975H130.987V13.3376C130.987 12.789 130.971 12.1941 130.938 11.5502H132.158L132.223 12.5267H132.261C132.424 12.2233 132.665 11.9728 132.981 11.7728C133.359 11.5396 133.779 11.4216 134.242 11.4216C134.824 11.4216 135.309 11.6098 135.695 11.9874C136.176 12.4498 136.415 13.1402 136.415 14.0571V17.7989Z" fill="white"/>
<path d="M145.767 12.593H144.237V15.6272C144.237 16.3984 144.509 16.784 145.047 16.784C145.296 16.784 145.503 16.7628 145.666 16.719L145.702 17.7724C145.427 17.8758 145.067 17.9274 144.623 17.9274C144.074 17.9274 143.647 17.7605 143.338 17.4266C143.028 17.0927 142.874 16.5309 142.874 15.7425V12.593H141.96V11.5529H142.874V10.4081L144.235 9.99731V11.5515H145.766L145.767 12.593Z" fill="white"/>
<path d="M153.123 17.7988H151.732V14.2478C151.732 13.1282 151.313 12.5677 150.474 12.5677C149.83 12.5677 149.389 12.8923 149.148 13.5416C149.107 13.678 149.083 13.845 149.083 14.0411V17.7975H147.695V8.68677H149.083V12.4511H149.11C149.547 11.7661 150.174 11.4242 150.987 11.4242C151.563 11.4242 152.039 11.6124 152.416 11.99C152.887 12.4604 153.123 13.16 153.123 14.0848V17.7988Z" fill="white"/>
<path d="M160.711 14.3802C160.711 14.6293 160.693 14.8387 160.66 15.0096H156.492C156.511 15.6271 156.71 16.0974 157.096 16.4234C157.448 16.7149 157.903 16.8606 158.46 16.8606C159.077 16.8606 159.639 16.7626 160.145 16.5652L160.363 17.5298C159.77 17.7868 159.073 17.9153 158.265 17.9153C157.297 17.9153 156.535 17.6305 155.983 17.0607C155.429 16.491 155.155 15.7264 155.155 14.7671C155.155 13.8251 155.41 13.0407 155.926 12.4153C156.465 11.7475 157.192 11.4136 158.111 11.4136C159.01 11.4136 159.693 11.7475 160.155 12.4153C160.527 12.9453 160.711 13.6011 160.711 14.3802ZM159.386 14.0212C159.396 13.6091 159.305 13.254 159.116 12.9545C158.875 12.569 158.508 12.3755 158.011 12.3755C157.557 12.3755 157.187 12.5637 156.905 12.9413C156.674 13.2421 156.537 13.6011 156.492 14.0212H159.386Z" fill="white"/>
</g>
<defs>
<clipPath id="clip0_188_718">
<rect width="179" height="53" fill="white"/>
</clipPath>
</defs>
</svg>
