<svg width="48" height="48" viewBox="0 0 48 48" fill="none" xmlns="http://www.w3.org/2000/svg">
<path d="M28.7335 24.9334H16.0002C15.7358 24.9334 15.5142 24.8436 15.3355 24.6641C15.1564 24.4849 15.0669 24.2627 15.0669 23.9974C15.0669 23.7325 15.1564 23.5112 15.3355 23.3334C15.5142 23.1556 15.7358 23.0667 16.0002 23.0667H28.7335L23.3335 17.6667C23.1558 17.5036 23.0669 17.2963 23.0669 17.0447C23.0669 16.7927 23.1558 16.5778 23.3335 16.4C23.5113 16.2223 23.7262 16.1334 23.9782 16.1334C24.2297 16.1334 24.4371 16.2223 24.6002 16.4L30.8002 22.6C31.2002 23 31.4002 23.4667 31.4002 24C31.4002 24.5334 31.2002 25.0001 30.8002 25.4001L24.6002 31.6C24.4224 31.7778 24.2113 31.8556 23.9669 31.8334C23.7224 31.8112 23.5113 31.7112 23.3335 31.5334C23.1558 31.3556 23.0669 31.1407 23.0669 30.8887C23.0669 30.6372 23.1558 30.4298 23.3335 30.2667L28.7335 24.9334ZM23.9889 47.2001C27.1964 47.2001 30.2126 46.5914 33.0375 45.3741C35.8624 44.1567 38.3195 42.5045 40.4089 40.4174C42.4986 38.3303 44.1529 35.8763 45.3715 33.0554C46.5906 30.234 47.2002 27.2194 47.2002 24.0114C47.2002 20.8038 46.5915 17.7876 45.3742 14.9627C44.1569 12.1378 42.5046 9.68072 40.4175 7.59138C38.3304 5.5016 35.8764 3.84738 33.0555 2.62872C30.2342 1.4096 27.2195 0.800049 24.0115 0.800049C20.804 0.800049 17.7878 1.40872 14.9629 2.62605C12.138 3.84338 9.68086 5.4956 7.59153 7.58272C5.50175 9.66983 3.84753 12.1238 2.62886 14.9447C1.40975 17.766 0.800194 20.7807 0.800194 23.9887C0.800194 27.1963 1.40886 30.2125 2.62619 33.0374C3.84353 35.8623 5.49575 38.3194 7.58286 40.4087C9.66997 42.4985 12.124 44.1527 14.9449 45.3714C17.7662 46.5905 20.7809 47.2001 23.9889 47.2001ZM24.0002 45.3334C18.0446 45.3334 13.0002 43.2667 8.86686 39.1334C4.73353 35 2.66686 29.9556 2.66686 24C2.66686 18.0445 4.73353 13 8.86686 8.86672C13.0002 4.73338 18.0446 2.66672 24.0002 2.66672C29.9558 2.66672 35.0002 4.73338 39.1335 8.86672C43.2669 13 45.3335 18.0445 45.3335 24C45.3335 29.9556 43.2669 35 39.1335 39.1334C35.0002 43.2667 29.9558 45.3334 24.0002 45.3334Z" fill="white"/>
</svg>
