<svg width="28" height="28" viewBox="0 0 28 28" fill="none" xmlns="http://www.w3.org/2000/svg">
<mask id="mask0_96_217" style="mask-type:alpha" maskUnits="userSpaceOnUse" x="0" y="0" width="28" height="28">
<rect width="28" height="28" fill="#D9D9D9"/>
</mask>
<g mask="url(#mask0_96_217)">
<path d="M18.8349 9.10438L7.9467 19.9815C7.78512 20.1429 7.58212 20.2217 7.3377 20.218C7.09309 20.2143 6.88999 20.1317 6.72841 19.9701C6.56702 19.8085 6.48633 19.6074 6.48633 19.3667C6.48633 19.1259 6.56702 18.9248 6.72841 18.7632L17.6055 7.875H8.04324C7.79533 7.875 7.58747 7.7911 7.41966 7.62329C7.25205 7.45549 7.16824 7.24762 7.16824 6.99971C7.16824 6.7516 7.25205 6.54383 7.41966 6.37642C7.58747 6.20881 7.79533 6.125 8.04324 6.125H19.5302C19.8291 6.125 20.0795 6.22601 20.2816 6.42804C20.4838 6.63026 20.5849 6.88071 20.5849 7.17938V18.6667C20.5849 18.9146 20.501 19.1223 20.3332 19.29C20.1654 19.4578 19.9575 19.5417 19.7096 19.5417C19.4615 19.5417 19.2536 19.4578 19.086 19.29C18.9186 19.1223 18.8349 18.9146 18.8349 18.6667V9.10438Z" fill="white"/>
</g>
</svg>
