<svg width="48" height="48" viewBox="0 0 48 48" fill="none" xmlns="http://www.w3.org/2000/svg">
<path d="M19.2665 24.9334H31.9998C32.2642 24.9334 32.4858 24.8436 32.6645 24.6641C32.8436 24.4849 32.9331 24.2627 32.9331 23.9974C32.9331 23.7325 32.8436 23.5112 32.6645 23.3334C32.4858 23.1556 32.2642 23.0667 31.9998 23.0667H19.2665L24.6665 17.6667C24.8442 17.5036 24.9331 17.2963 24.9331 17.0447C24.9331 16.7927 24.8442 16.5778 24.6665 16.4C24.4887 16.2223 24.2738 16.1334 24.0218 16.1334C23.7703 16.1334 23.5629 16.2223 23.3998 16.4L17.1998 22.6C16.7998 23 16.5998 23.4667 16.5998 24C16.5998 24.5334 16.7998 25.0001 17.1998 25.4001L23.3998 31.6C23.5776 31.7778 23.7887 31.8556 24.0331 31.8334C24.2776 31.8112 24.4887 31.7112 24.6665 31.5334C24.8442 31.3556 24.9331 31.1407 24.9331 30.8887C24.9331 30.6372 24.8442 30.4298 24.6665 30.2667L19.2665 24.9334ZM24.0111 47.2001C20.8036 47.2001 17.7874 46.5914 14.9625 45.3741C12.1376 44.1567 9.68047 42.5045 7.59114 40.4174C5.50136 38.3303 3.84714 35.8763 2.62847 33.0554C1.40936 30.234 0.799805 27.2194 0.799805 24.0114C0.799805 20.8038 1.40847 17.7876 2.6258 14.9627C3.84314 12.1378 5.49536 9.68072 7.58247 7.59138C9.66958 5.5016 12.1236 3.84738 14.9445 2.62872C17.7658 1.4096 20.7805 0.800049 23.9885 0.800049C27.196 0.800049 30.2122 1.40872 33.0371 2.62605C35.862 3.84338 38.3191 5.4956 40.4085 7.58272C42.4983 9.66983 44.1525 12.1238 45.3711 14.9447C46.5903 17.766 47.1998 20.7807 47.1998 23.9887C47.1998 27.1963 46.5911 30.2125 45.3738 33.0374C44.1565 35.8623 42.5043 38.3194 40.4171 40.4087C38.33 42.4985 35.876 44.1527 33.0551 45.3714C30.2338 46.5905 27.2191 47.2001 24.0111 47.2001ZM23.9998 45.3334C29.9554 45.3334 34.9998 43.2667 39.1331 39.1334C43.2665 35 45.3331 29.9556 45.3331 24C45.3331 18.0445 43.2665 13 39.1331 8.86672C34.9998 4.73338 29.9554 2.66672 23.9998 2.66672C18.0442 2.66672 12.9998 4.73338 8.86647 8.86672C4.73314 13 2.66647 18.0445 2.66647 24C2.66647 29.9556 4.73314 35 8.86647 39.1334C12.9998 43.2667 18.0442 45.3334 23.9998 45.3334Z" fill="white"/>
</svg>
