<svg width="134" height="40" viewBox="0 0 134 40" fill="none" xmlns="http://www.w3.org/2000/svg">
<g clip-path="url(#clip0_214_73)">
<path d="M129.233 40H4.69397C2.10628 40 0 37.872 0 35.267V4.726C0 2.12 2.10628 0 4.69397 0H129.233C131.819 0 134 2.12 134 4.726V35.267C134 37.872 131.819 40 129.233 40Z" fill="#A6A6A6"/>
<path d="M133.039 35.2679C133.039 37.3839 131.338 39.0979 129.233 39.0979H4.69386C2.59056 39.0979 0.883301 37.3839 0.883301 35.2679V4.72489C0.883301 2.60989 2.59056 0.889893 4.69386 0.889893H129.232C131.338 0.889893 133.038 2.60989 133.038 4.72489L133.039 35.2679Z" fill="black"/>
<path d="M29.9049 19.784C29.8762 16.561 32.5244 14.993 32.6455 14.92C31.1457 12.717 28.821 12.416 28.0041 12.392C26.0517 12.185 24.1578 13.569 23.1633 13.569C22.1488 13.569 20.6173 12.412 18.9666 12.446C16.8424 12.479 14.8553 13.718 13.7654 15.642C11.5162 19.565 13.1937 25.33 15.3486 28.501C16.4265 30.054 17.6861 31.788 19.3348 31.727C20.9478 31.66 21.5503 30.691 23.4968 30.691C25.4254 30.691 25.9912 31.727 27.6726 31.688C29.4037 31.66 30.4936 30.128 31.5338 28.561C32.7795 26.781 33.2798 25.028 33.2996 24.938C33.2589 24.924 29.9377 23.647 29.9049 19.784Z" fill="white"/>
<path d="M26.7286 10.306C27.5961 9.21304 28.1897 7.72604 28.0249 6.21704C26.7693 6.27304 25.199 7.09204 24.2948 8.16104C23.4947 9.10304 22.7801 10.647 22.9647 12.099C24.3752 12.205 25.8233 11.382 26.7286 10.306Z" fill="white"/>
<path d="M53.2477 31.504H50.9935L49.7588 27.595H45.4668L44.2906 31.504H42.0959L46.3482 18.196H48.9746L53.2477 31.504ZM49.3865 25.955L48.2699 22.48C48.1518 22.125 47.9304 21.289 47.6038 19.973H47.5641C47.4341 20.539 47.2247 21.375 46.9368 22.48L45.84 25.955H49.3865Z" fill="white"/>
<path d="M64.183 26.5879C64.183 28.2199 63.7453 29.5099 62.8698 30.4569C62.0857 31.2999 61.112 31.7209 59.9496 31.7209C58.695 31.7209 57.7937 31.2669 57.2448 30.3589H57.2051V35.4139H55.0889V25.0669C55.0889 24.0409 55.0621 22.9879 55.0105 21.9079H56.8716L56.9897 23.4289H57.0294C57.7352 22.2829 58.8062 21.7109 60.2434 21.7109C61.3671 21.7109 62.3051 22.1579 63.0555 23.0529C63.8078 23.9489 64.183 25.1269 64.183 26.5879ZM62.0271 26.6659C62.0271 25.7319 61.8187 24.9619 61.3998 24.3559C60.9422 23.7239 60.3278 23.4079 59.5576 23.4079C59.0355 23.4079 58.561 23.5839 58.1372 23.9309C57.7123 24.2809 57.4344 24.7379 57.3044 25.3039C57.2389 25.5679 57.2061 25.7839 57.2061 25.9539V27.5539C57.2061 28.2519 57.4185 28.8409 57.8434 29.3219C58.2682 29.8029 58.8201 30.0429 59.499 30.0429C60.2961 30.0429 60.9164 29.7329 61.3601 29.1149C61.8048 28.4959 62.0271 27.6799 62.0271 26.6659Z" fill="white"/>
<path d="M75.1384 26.5879C75.1384 28.2199 74.7006 29.5099 73.8242 30.4569C73.041 31.2999 72.0673 31.7209 70.9049 31.7209C69.6503 31.7209 68.749 31.2669 68.2011 30.3589H68.1614V35.4139H66.0452V25.0669C66.0452 24.0409 66.0184 22.9879 65.9668 21.9079H67.8279L67.946 23.4289H67.9857C68.6905 22.2829 69.7615 21.7109 71.1997 21.7109C72.3224 21.7109 73.2604 22.1579 74.0128 23.0529C74.7622 23.9489 75.1384 25.1269 75.1384 26.5879ZM72.9824 26.6659C72.9824 25.7319 72.773 24.9619 72.3541 24.3559C71.8965 23.7239 71.2841 23.4079 70.5129 23.4079C69.9898 23.4079 69.5163 23.5839 69.0915 23.9309C68.6667 24.2809 68.3897 24.7379 68.2597 25.3039C68.1952 25.5679 68.1614 25.7839 68.1614 25.9539V27.5539C68.1614 28.2519 68.3738 28.8409 68.7967 29.3219C69.2215 29.8019 69.7734 30.0429 70.4543 30.0429C71.2514 30.0429 71.8717 29.7329 72.3154 29.1149C72.7601 28.4959 72.9824 27.6799 72.9824 26.6659Z" fill="white"/>
<path d="M87.387 27.772C87.387 28.904 86.9969 29.825 86.2137 30.536C85.3532 31.313 84.1551 31.701 82.6156 31.701C81.1942 31.701 80.0547 31.425 79.1921 30.872L79.6825 29.095C80.6115 29.661 81.6309 29.945 82.7417 29.945C83.5387 29.945 84.1591 29.763 84.6047 29.401C85.0484 29.039 85.2698 28.553 85.2698 27.947C85.2698 27.407 85.0871 26.952 84.7209 26.583C84.3566 26.214 83.7481 25.871 82.8985 25.554C80.5857 24.685 79.4304 23.412 79.4304 21.738C79.4304 20.644 79.8353 19.747 80.6463 19.049C81.4543 18.35 82.5322 18.001 83.8802 18.001C85.0822 18.001 86.0807 18.212 86.8778 18.633L86.3487 20.371C85.6043 19.963 84.7626 19.759 83.8206 19.759C83.0762 19.759 82.4945 19.944 82.0776 20.312C81.7252 20.641 81.5486 21.042 81.5486 21.517C81.5486 22.043 81.7501 22.478 82.155 22.82C82.5074 23.136 83.1476 23.478 84.0767 23.847C85.2132 24.308 86.048 24.847 86.585 25.465C87.12 26.081 87.387 26.852 87.387 27.772Z" fill="white"/>
<path d="M94.3837 23.5081H92.0511V28.1671C92.0511 29.3521 92.4621 29.9441 93.2859 29.9441C93.6641 29.9441 93.9777 29.9111 94.2259 29.8451L94.2845 31.4641C93.8676 31.6211 93.3187 31.7001 92.6387 31.7001C91.803 31.7001 91.1499 31.4431 90.6784 30.9301C90.2089 30.4161 89.9726 29.5541 89.9726 28.3431V23.5061H88.583V21.9061H89.9726V20.1491L92.0511 19.5171V21.9061H94.3837V23.5081Z" fill="white"/>
<path d="M104.908 26.6269C104.908 28.1019 104.489 29.3129 103.654 30.2599C102.777 31.2349 101.614 31.7209 100.164 31.7209C98.7661 31.7209 97.6534 31.2539 96.8236 30.3199C95.9938 29.3859 95.5789 28.2069 95.5789 26.7859C95.5789 25.2989 96.0057 24.0809 96.8623 23.1339C97.7169 22.1859 98.8703 21.7119 100.32 21.7119C101.718 21.7119 102.843 22.1789 103.691 23.1139C104.503 24.0209 104.908 25.1919 104.908 26.6269ZM102.713 26.6959C102.713 25.8109 102.525 25.0519 102.145 24.4189C101.701 23.6529 101.067 23.2709 100.245 23.2709C99.3944 23.2709 98.7482 23.6539 98.3045 24.4189C97.9244 25.0529 97.7368 25.8239 97.7368 26.7359C97.7368 27.6209 97.9244 28.3799 98.3045 29.0119C98.7621 29.7779 99.4013 30.1599 100.226 30.1599C101.034 30.1599 101.668 29.7699 102.126 28.9919C102.516 28.3469 102.713 27.5799 102.713 26.6959Z" fill="white"/>
<path d="M111.787 23.7829C111.577 23.7439 111.354 23.7239 111.12 23.7239C110.375 23.7239 109.8 24.0069 109.395 24.5739C109.042 25.0739 108.866 25.7059 108.866 26.4689V31.5039H106.75L106.77 24.9299C106.77 23.8239 106.744 22.8169 106.691 21.9089H108.534L108.612 23.7449H108.67C108.893 23.1139 109.246 22.6059 109.728 22.2249C110.2 21.8819 110.709 21.7109 111.258 21.7109C111.453 21.7109 111.63 21.7249 111.787 21.7499V23.7829Z" fill="white"/>
<path d="M121.251 26.2519C121.251 26.6339 121.226 26.9559 121.174 27.2189H114.825C114.85 28.1669 115.157 28.8919 115.746 29.3919C116.281 29.8389 116.973 30.0629 117.823 30.0629C118.763 30.0629 119.62 29.9119 120.392 29.6089L120.723 31.0889C119.822 31.4849 118.758 31.6819 117.53 31.6819C116.053 31.6819 114.894 31.2439 114.05 30.3689C113.208 29.4939 112.786 28.3189 112.786 26.8449C112.786 25.3979 113.178 24.1929 113.964 23.2319C114.785 22.2059 115.896 21.6929 117.294 21.6929C118.666 21.6929 119.706 22.2059 120.411 23.2319C120.97 24.0469 121.251 25.0549 121.251 26.2519ZM119.233 25.6989C119.247 25.0669 119.109 24.5209 118.822 24.0599C118.456 23.4669 117.893 23.1709 117.136 23.1709C116.444 23.1709 115.881 23.4599 115.451 24.0399C115.099 24.5009 114.89 25.0539 114.825 25.6979L119.233 25.6989Z" fill="white"/>
<path d="M48.6867 10.0089C48.6867 11.1859 48.3363 12.0719 47.6366 12.6669C46.9884 13.2159 46.0673 13.4909 44.8742 13.4909C44.2826 13.4909 43.7764 13.4649 43.3525 13.4129V6.98195C43.9054 6.89195 44.501 6.84595 45.1442 6.84595C46.2807 6.84595 47.1373 7.09495 47.715 7.59295C48.3622 8.15595 48.6867 8.96095 48.6867 10.0089ZM47.5899 10.0379C47.5899 9.27495 47.3894 8.68995 46.9884 8.28195C46.5874 7.87495 46.0018 7.67095 45.2305 7.67095C44.903 7.67095 44.6241 7.69295 44.3928 7.73895V12.6279C44.5208 12.6479 44.7551 12.6569 45.0955 12.6569C45.8916 12.6569 46.506 12.4339 46.9388 11.9879C47.3715 11.5419 47.5899 10.8919 47.5899 10.0379Z" fill="white"/>
<path d="M54.5022 11.0368C54.5022 11.7618 54.2968 12.3558 53.8858 12.8218C53.455 13.3008 52.8843 13.5398 52.1716 13.5398C51.4848 13.5398 50.9378 13.3108 50.5299 12.8508C50.1229 12.3918 49.9194 11.8128 49.9194 11.1148C49.9194 10.3848 50.1289 9.7858 50.5497 9.3208C50.9706 8.8558 51.5364 8.6228 52.249 8.6228C52.9359 8.6228 53.4878 8.8518 53.9057 9.3108C54.3027 9.7568 54.5022 10.3328 54.5022 11.0368ZM53.4233 11.0708C53.4233 10.6358 53.33 10.2628 53.1444 9.9518C52.926 9.5758 52.6153 9.3878 52.2113 9.3878C51.7935 9.3878 51.4758 9.5758 51.2574 9.9518C51.0708 10.2628 50.9785 10.6418 50.9785 11.0898C50.9785 11.5248 51.0718 11.8978 51.2574 12.2088C51.4828 12.5848 51.7964 12.7728 52.2014 12.7728C52.5984 12.7728 52.9101 12.5818 53.1344 12.1988C53.327 11.8818 53.4233 11.5058 53.4233 11.0708Z" fill="white"/>
<path d="M62.3002 8.71899L60.8361 13.433H59.8832L59.2767 11.386C59.1229 10.875 58.9978 10.367 58.9005 9.86299H58.8817C58.7913 10.381 58.6663 10.888 58.5055 11.386L57.8613 13.433H56.8975L55.5208 8.71899H56.5898L57.1188 10.96C57.2469 11.49 57.3521 11.995 57.4365 12.473H57.4553C57.5327 12.079 57.6608 11.577 57.8414 10.97L58.5055 8.71999H59.3532L59.9894 10.922C60.1433 11.459 60.2683 11.976 60.3646 12.474H60.3934C60.4639 11.989 60.5701 11.472 60.711 10.922L61.2788 8.71999H62.3002V8.71899Z" fill="white"/>
<path d="M67.6929 13.4329H66.6527V10.7329C66.6527 9.90087 66.339 9.48487 65.7097 9.48487C65.401 9.48487 65.1519 9.59887 64.9584 9.82787C64.7668 10.0569 64.6695 10.3269 64.6695 10.6359V13.4319H63.6293V10.0659C63.6293 9.65187 63.6164 9.20287 63.5916 8.71687H64.5057L64.5544 9.45387H64.5832C64.7042 9.22487 64.8849 9.03587 65.1221 8.88487C65.404 8.70887 65.7197 8.61987 66.0651 8.61987C66.5018 8.61987 66.8651 8.76187 67.154 9.04687C67.5133 9.39587 67.6929 9.91687 67.6929 10.6089V13.4329Z" fill="white"/>
<path d="M70.5615 13.4329H69.5222V6.55591H70.5615V13.4329Z" fill="white"/>
<path d="M76.6858 11.0368C76.6858 11.7618 76.4804 12.3558 76.0694 12.8218C75.6386 13.3008 75.0669 13.5398 74.3552 13.5398C73.6674 13.5398 73.1204 13.3108 72.7135 12.8508C72.3065 12.3918 72.103 11.8128 72.103 11.1148C72.103 10.3848 72.3125 9.7858 72.7333 9.3208C73.1542 8.8558 73.72 8.6228 74.4317 8.6228C75.1195 8.6228 75.6704 8.8518 76.0893 9.3108C76.4863 9.7568 76.6858 10.3328 76.6858 11.0368ZM75.6059 11.0708C75.6059 10.6358 75.5126 10.2628 75.327 9.9518C75.1096 9.5758 74.7979 9.3878 74.3949 9.3878C73.976 9.3878 73.6584 9.5758 73.441 9.9518C73.2544 10.2628 73.1621 10.6418 73.1621 11.0898C73.1621 11.5248 73.2554 11.8978 73.441 12.2088C73.6664 12.5848 73.98 12.7728 74.385 12.7728C74.782 12.7728 75.0927 12.5818 75.317 12.1988C75.5106 11.8818 75.6059 11.5058 75.6059 11.0708Z" fill="white"/>
<path d="M81.7202 13.4328H80.7862L80.7088 12.8898H80.68C80.3604 13.3228 79.9048 13.5398 79.3132 13.5398C78.8715 13.5398 78.5142 13.3968 78.2452 13.1128C78.001 12.8548 77.8789 12.5338 77.8789 12.1528C77.8789 11.5768 78.1171 11.1378 78.5966 10.8338C79.075 10.5298 79.748 10.3808 80.6145 10.3878V10.2998C80.6145 9.6788 80.2909 9.3688 79.6427 9.3688C79.1812 9.3688 78.7742 9.4858 78.4229 9.7178L78.2114 9.0298C78.6462 8.7588 79.1832 8.6228 79.8165 8.6228C81.0393 8.6228 81.6527 9.2728 81.6527 10.5728V12.3088C81.6527 12.7798 81.6756 13.1548 81.7202 13.4328ZM80.6403 11.8128V11.0858C79.4929 11.0658 78.9191 11.3828 78.9191 12.0358C78.9191 12.2818 78.9847 12.4658 79.1187 12.5888C79.2527 12.7118 79.4234 12.7728 79.6269 12.7728C79.8552 12.7728 80.0686 12.6998 80.2631 12.5548C80.4587 12.4088 80.5788 12.2238 80.6234 11.9968C80.6343 11.9458 80.6403 11.8838 80.6403 11.8128Z" fill="white"/>
<path d="M87.6312 13.4329H86.7081L86.6595 12.6759H86.6307C86.3359 13.2519 85.8336 13.5399 85.1279 13.5399C84.5641 13.5399 84.0946 13.3169 83.7224 12.8709C83.3502 12.4249 83.1646 11.8459 83.1646 11.1349C83.1646 10.3719 83.366 9.75391 83.771 9.28191C84.1631 8.84191 84.6435 8.62191 85.2152 8.62191C85.8436 8.62191 86.2833 8.83491 86.5334 9.26191H86.5533V6.55591H87.5945V12.1629C87.5945 12.6219 87.6064 13.0449 87.6312 13.4329ZM86.5533 11.4449V10.6589C86.5533 10.5229 86.5433 10.4129 86.5245 10.3289C86.4659 10.0769 86.3399 9.86491 86.1483 9.69391C85.9547 9.52291 85.7215 9.43691 85.4525 9.43691C85.0644 9.43691 84.7606 9.59191 84.5373 9.90291C84.316 10.2139 84.2038 10.6109 84.2038 11.0959C84.2038 11.5619 84.31 11.9399 84.5234 12.2309C84.7487 12.5409 85.0525 12.6959 85.4326 12.6959C85.7741 12.6959 86.047 12.5669 86.2545 12.3079C86.455 12.0689 86.5533 11.7809 86.5533 11.4449Z" fill="white"/>
<path d="M96.5276 11.0368C96.5276 11.7618 96.3222 12.3558 95.9112 12.8218C95.4804 13.3008 94.9107 13.5398 94.197 13.5398C93.5111 13.5398 92.9642 13.3108 92.5553 12.8508C92.1483 12.3918 91.9448 11.8128 91.9448 11.1148C91.9448 10.3848 92.1543 9.7858 92.5751 9.3208C92.996 8.8558 93.5618 8.6228 94.2754 8.6228C94.9613 8.6228 95.5142 8.8518 95.9311 9.3108C96.3281 9.7568 96.5276 10.3328 96.5276 11.0368ZM95.4497 11.0708C95.4497 10.6358 95.3564 10.2628 95.1708 9.9518C94.9514 9.5758 94.6417 9.3878 94.2367 9.3878C93.8198 9.3878 93.5022 9.5758 93.2828 9.9518C93.0962 10.2628 93.0039 10.6418 93.0039 11.0898C93.0039 11.5248 93.0972 11.8978 93.2828 12.2088C93.5082 12.5848 93.8218 12.7728 94.2268 12.7728C94.6238 12.7728 94.9365 12.5818 95.1608 12.1988C95.3524 11.8818 95.4497 11.5058 95.4497 11.0708Z" fill="white"/>
<path d="M102.121 13.4329H101.082V10.7329C101.082 9.90087 100.768 9.48487 100.138 9.48487C99.829 9.48487 99.5799 9.59887 99.3873 9.82787C99.1947 10.0569 99.0985 10.3269 99.0985 10.6359V13.4319H98.0572V10.0659C98.0572 9.65187 98.0453 9.20287 98.0205 8.71687H98.9337L98.9823 9.45387H99.0111C99.1332 9.22487 99.3139 9.03587 99.5501 8.88487C99.833 8.70887 100.148 8.61987 100.494 8.61987C100.93 8.61987 101.293 8.76187 101.582 9.04687C101.942 9.39587 102.121 9.91687 102.121 10.6089V13.4329Z" fill="white"/>
<path d="M109.122 9.50392H107.976V11.7939C107.976 12.3759 108.18 12.6669 108.583 12.6669C108.769 12.6669 108.924 12.6509 109.046 12.6179L109.073 13.4129C108.868 13.4909 108.598 13.5299 108.265 13.5299C107.854 13.5299 107.535 13.4039 107.303 13.1519C107.071 12.8999 106.956 12.4759 106.956 11.8809V9.50392H106.272V8.71892H106.956V7.85492L107.975 7.54492V8.71792H109.121L109.122 9.50392Z" fill="white"/>
<path d="M114.629 13.4329H113.587V10.7529C113.587 9.90791 113.274 9.48491 112.645 9.48491C112.163 9.48491 111.833 9.72991 111.653 10.2199C111.622 10.3229 111.604 10.4489 111.604 10.5969V13.4319H110.565V6.55591H111.604V9.39691H111.624C111.952 8.87991 112.421 8.62191 113.03 8.62191C113.46 8.62191 113.817 8.76391 114.1 9.04891C114.452 9.40391 114.629 9.93191 114.629 10.6299V13.4329Z" fill="white"/>
<path d="M120.309 10.853C120.309 11.041 120.295 11.199 120.27 11.328H117.151C117.165 11.794 117.313 12.149 117.602 12.395C117.866 12.615 118.207 12.725 118.624 12.725C119.085 12.725 119.506 12.651 119.885 12.502L120.048 13.23C119.604 13.424 119.082 13.521 118.478 13.521C117.753 13.521 117.182 13.306 116.77 12.876C116.355 12.446 116.149 11.869 116.149 11.145C116.149 10.434 116.341 9.84201 116.727 9.37001C117.13 8.86601 117.675 8.61401 118.363 8.61401C119.036 8.61401 119.547 8.86601 119.892 9.37001C120.171 9.77001 120.309 10.265 120.309 10.853ZM119.317 10.582C119.324 10.271 119.256 10.003 119.115 9.77701C118.934 9.48601 118.659 9.34001 118.287 9.34001C117.948 9.34001 117.671 9.48201 117.459 9.76701C117.287 9.99401 117.184 10.265 117.151 10.582H119.317Z" fill="white"/>
</g>
<defs>
<clipPath id="clip0_214_73">
<rect width="134" height="40" fill="white"/>
</clipPath>
</defs>
</svg>
