<svg width="32" height="32" viewBox="0 0 32 32" fill="none" xmlns="http://www.w3.org/2000/svg">
<circle cx="16" cy="16" r="16" fill="white"/>
<g clip-path="url(#clip0_216_144)">
<path d="M24.8353 12.3358C24.8207 11.5983 24.6811 10.8686 24.4224 10.1778C24.199 9.58459 23.8488 9.04732 23.3963 8.60343C22.9524 8.15094 22.4151 7.80074 21.822 7.57726C21.1314 7.31875 20.4021 7.17916 19.6649 7.16442C18.7158 7.12096 18.4136 7.11108 15.9997 7.11108C13.5859 7.11108 13.2837 7.12096 12.3355 7.16442C11.598 7.17905 10.8683 7.31864 10.1775 7.57726C9.58399 7.80061 9.04638 8.15082 8.6022 8.60343C8.14971 9.04732 7.79951 9.58459 7.57603 10.1778C7.31752 10.8683 7.17793 11.5976 7.16319 12.3348C7.12072 13.2839 7.11084 13.5861 7.11084 16C7.11084 18.4138 7.12072 18.716 7.16417 19.6642C7.1788 20.4017 7.3184 21.1314 7.57701 21.8222C7.80049 22.4154 8.1507 22.9526 8.60319 23.3965C9.04706 23.849 9.58433 24.1992 10.1775 24.4227C10.868 24.6812 11.5974 24.8208 12.3345 24.8355C13.2837 24.879 13.5859 24.8889 15.9997 24.8889C18.4136 24.8889 18.7158 24.879 19.6639 24.8355C20.4014 24.8209 21.1311 24.6813 21.822 24.4227C22.4127 24.1943 22.9491 23.845 23.397 23.3972C23.8448 22.9494 24.1941 22.4129 24.4224 21.8222C24.681 21.1317 24.8205 20.4023 24.8353 19.6652C24.8787 18.716 24.8886 18.4138 24.8886 16C24.8886 13.5861 24.8787 13.2839 24.8353 12.3358ZM23.2353 19.5921C23.2285 20.1553 23.1249 20.7133 22.9291 21.2415C22.7814 21.625 22.5549 21.9733 22.2644 22.264C21.9739 22.5548 21.6256 22.7814 21.2422 22.9294C20.7137 23.1252 20.1554 23.2288 19.5918 23.2355C18.6536 23.278 18.3731 23.2869 15.9997 23.2869C13.6264 23.2869 13.3449 23.278 12.4076 23.2355C11.8444 23.2287 11.2864 23.1251 10.7582 22.9294C10.3718 22.7871 10.0221 22.56 9.73504 22.2647C9.43987 21.9779 9.21274 21.6286 9.07035 21.2424C8.87444 20.7139 8.77087 20.1557 8.76417 19.5921C8.7217 18.6538 8.71282 18.3733 8.71282 16C8.71282 13.6266 8.7217 13.3452 8.76417 12.4079C8.77101 11.8446 8.87457 11.2867 9.07035 10.7585C9.2126 10.372 9.43974 10.0224 9.73504 9.73528C10.0218 9.44011 10.3711 9.21298 10.7573 9.07059C11.2858 8.8747 11.844 8.77114 12.4076 8.76442C13.3459 8.72195 13.6264 8.71306 15.9997 8.71306C18.3731 8.71306 18.6545 8.72195 19.5918 8.76442C20.1551 8.77125 20.713 8.87482 21.2412 9.07059C21.6277 9.21285 21.9774 9.43999 22.2644 9.73528C22.5596 10.0221 22.7867 10.3714 22.9291 10.7575C23.125 11.286 23.2286 11.8443 23.2353 12.4079C23.2778 13.3461 23.2866 13.6266 23.2866 16C23.2866 18.3733 23.2778 18.6548 23.2353 19.5921ZM15.9997 11.435C15.0969 11.435 14.2143 11.7028 13.4636 12.2044C12.7129 12.706 12.1278 13.4189 11.7823 14.253C11.4368 15.0872 11.3464 16.005 11.5225 16.8905C11.6986 17.7761 12.1334 18.5895 12.7718 19.2279C13.4102 19.8663 14.2236 20.3011 15.1092 20.4772C15.9947 20.6533 16.9125 20.5629 17.7467 20.2174C18.5808 19.8719 19.2937 19.2868 19.7953 18.5361C20.2969 17.7854 20.5647 16.9028 20.5647 16C20.5647 14.7893 20.0837 13.6282 19.2276 12.7721C18.3715 11.916 17.2104 11.435 15.9997 11.435ZM15.9997 18.9629C15.4137 18.9629 14.8409 18.7892 14.3536 18.4636C13.8663 18.138 13.4866 17.6753 13.2623 17.1339C13.038 16.5924 12.9794 15.9967 13.0937 15.4219C13.208 14.8472 13.4902 14.3192 13.9046 13.9048C14.319 13.4905 14.8469 13.2083 15.4217 13.0939C15.9964 12.9796 16.5922 13.0383 17.1336 13.2626C17.675 13.4868 18.1378 13.8666 18.4633 14.3538C18.7889 14.8411 18.9627 15.414 18.9627 16C18.9627 16.7858 18.6505 17.5394 18.0949 18.0951C17.5392 18.6508 16.7856 18.9629 15.9997 18.9629ZM21.8111 11.2553C21.8111 11.4662 21.7485 11.6725 21.6313 11.8479C21.5141 12.0233 21.3475 12.16 21.1526 12.2408C20.9577 12.3215 20.7432 12.3426 20.5363 12.3015C20.3294 12.2603 20.1393 12.1587 19.9902 12.0095C19.841 11.8604 19.7394 11.6703 19.6982 11.4634C19.6571 11.2565 19.6782 11.042 19.759 10.8471C19.8397 10.6522 19.9764 10.4856 20.1518 10.3684C20.3272 10.2512 20.5335 10.1886 20.7444 10.1886C21.0273 10.1886 21.2986 10.301 21.4987 10.501C21.6987 10.7011 21.8111 10.9724 21.8111 11.2553Z" fill="#08500D"/>
</g>
<defs>
<clipPath id="clip0_216_144">
<rect width="17.7778" height="17.7778" fill="white" transform="translate(7.11084 7.11108)"/>
</clipPath>
</defs>
</svg>
