<svg width="32" height="32" viewBox="0 0 32 32" fill="none" xmlns="http://www.w3.org/2000/svg">
<circle cx="16" cy="16" r="16" fill="white"/>
<path d="M16 7.11108C11.1111 7.11108 7.11108 11.1111 7.11108 16C7.11108 17.6 7.55622 19.1111 8.26733 20.4444L7.11108 24.8889L11.7326 23.8229C13.0659 24.534 14.4889 24.8889 16 24.8889C20.8889 24.8889 24.8889 20.8889 24.8889 16C24.8889 13.6 23.9996 11.3781 22.3107 9.68921C20.6218 8.00032 18.4 7.11108 16 7.11108ZM16 8.88886C17.8666 8.88886 19.6437 9.60067 21.0659 10.934C22.3993 12.3562 23.1111 14.1333 23.1111 16C23.1111 19.9111 19.9111 23.1111 16 23.1111C14.8444 23.1111 13.5993 22.8444 12.6215 22.2222L12 21.8663L11.3784 22.0451L9.60067 22.4896L10.0451 20.8889L10.2222 20.1771L9.86629 19.5555C9.24407 18.4889 8.88886 17.2444 8.88886 16C8.88886 12.0889 12.0889 8.88886 16 8.88886ZM12.8889 11.9114C12.7111 11.9114 12.4451 11.9104 12.2673 12.1771C12.0007 12.4437 11.467 12.9784 11.467 14.0451C11.467 15.1118 12.267 16.1781 12.3559 16.3559C12.5337 16.5337 13.9548 18.8437 16.1771 19.7326C18.0437 20.4437 18.3993 20.2673 18.8437 20.2673C19.2882 20.1784 20.1781 19.733 20.3559 19.1996C20.5337 18.6663 20.5326 18.2215 20.6215 17.9548C20.5326 17.8659 20.4437 17.7781 20.1771 17.6892C19.9993 17.6003 18.9333 17.0663 18.6666 16.9774C18.4 16.8885 18.3114 16.7993 18.1337 17.0659C17.9559 17.3326 17.5107 17.7771 17.4218 17.9548C17.333 18.1326 17.2441 18.134 16.9774 18.0451C16.7996 17.9562 16.0885 17.7774 15.1996 16.9774C14.4885 16.4441 14.0437 15.7337 13.9548 15.467C13.7771 15.2892 13.9562 15.1114 14.0451 15.0225L14.3993 14.6666C14.4882 14.5778 14.4892 14.3996 14.5781 14.3107C14.667 14.2218 14.667 14.1326 14.5781 13.9548C14.4892 13.7771 14.0441 12.7118 13.8663 12.2673C13.6885 11.9118 13.5111 11.9114 13.3333 11.9114H12.8889Z" fill="#08500D"/>
</svg>
