<svg width="32" height="32" viewBox="0 0 32 32" fill="none" xmlns="http://www.w3.org/2000/svg">
<circle cx="16" cy="16" r="16" fill="white"/>
<path d="M15.9388 9.35718C13.2162 9.35718 10.6866 9.55116 9.24316 9.85271C9.24009 9.85353 9.23702 9.85436 9.23396 9.85522C8.14649 10.0989 7.12251 10.8778 6.90695 12.0977C6.90666 12.0994 6.90638 12.101 6.90611 12.1027C6.7405 13.0859 6.57129 14.3675 6.57129 16.2143C6.57129 18.0577 6.74108 19.3053 6.95047 20.3402C7.17132 21.524 8.17167 22.3265 9.27581 22.5734C9.28109 22.5749 9.28639 22.5763 9.29171 22.5776C10.7982 22.8744 13.2563 23.0715 15.9789 23.0715C18.7015 23.0715 21.161 22.8744 22.6678 22.5776C22.6731 22.5763 22.6784 22.5749 22.6837 22.5734C23.7712 22.3297 24.7952 21.5508 25.0107 20.3309C25.0113 20.3279 25.0119 20.3248 25.0124 20.3217C25.1755 19.3185 25.3868 18.0382 25.4284 16.1884C25.4285 16.1836 25.4285 16.1789 25.4284 16.1741C25.4284 14.3233 25.2166 13.0338 25.0099 12.0123C24.7908 10.8259 23.7893 10.0212 22.6837 9.77403C22.6668 9.77028 22.6498 9.7672 22.6327 9.76482C21.1626 9.55816 18.6618 9.35718 15.9388 9.35718ZM14.3525 13.0009C14.5113 12.9976 14.6754 13.0351 14.8297 13.1222L18.5169 15.2057C19.1387 15.5571 19.1387 16.4438 18.5169 16.7952L14.8297 18.8787C14.2129 19.2267 13.4443 18.7859 13.4443 18.0835V13.9166C13.4443 13.3898 13.8763 13.0107 14.3525 13.0009Z" fill="#08500D"/>
</svg>
