<svg width="48" height="48" viewBox="0 0 48 48" fill="none" xmlns="http://www.w3.org/2000/svg">
<circle cx="24" cy="24" r="24" fill="#1B1B1B"/>
<mask id="mask0_327_159" style="mask-type:alpha" maskUnits="userSpaceOnUse" x="6" y="6" width="36" height="36">
<rect x="6" y="6" width="36" height="36" fill="#D9D9D9"/>
</mask>
<g mask="url(#mask0_327_159)">
<path d="M30.9405 25.125H13.875C13.5558 25.125 13.2885 25.0173 13.0732 24.8018C12.8577 24.5865 12.75 24.3193 12.75 24C12.75 23.6808 12.8577 23.4135 13.0732 23.1983C13.2885 22.9828 13.5558 22.875 13.875 22.875H30.9405L23.1866 15.1211C22.9636 14.8981 22.8535 14.6371 22.8563 14.3381C22.8593 14.0391 22.977 13.7733 23.2095 13.5405C23.4423 13.3233 23.7057 13.2108 24 13.203C24.2943 13.1953 24.5577 13.3078 24.7905 13.5405L34.3009 23.0509C34.4414 23.1914 34.5404 23.3395 34.5979 23.4953C34.6556 23.651 34.6845 23.8193 34.6845 24C34.6845 24.1808 34.6556 24.349 34.5979 24.5048C34.5404 24.6605 34.4414 24.8086 34.3009 24.9491L24.7905 34.4595C24.5827 34.6673 24.3255 34.7735 24.0188 34.7783C23.712 34.783 23.4423 34.6768 23.2095 34.4595C22.977 34.2268 22.8608 33.9595 22.8608 33.6578C22.8608 33.3558 22.977 33.0884 23.2095 32.8556L30.9405 25.125Z" fill="white"/>
</g>
</svg>
