<svg width="20" height="20" viewBox="0 0 20 20" fill="none" xmlns="http://www.w3.org/2000/svg">
<mask id="mask0_317_184" style="mask-type:alpha" maskUnits="userSpaceOnUse" x="0" y="0" width="20" height="20">
<rect width="20" height="20" fill="#D9D9D9"/>
</mask>
<g mask="url(#mask0_317_184)">
<path d="M10.0002 17.7709C9.80572 17.7709 9.61127 17.7362 9.41683 17.6667C9.22238 17.5973 9.04877 17.4931 8.896 17.3542C7.99322 16.5209 7.19461 15.7084 6.50016 14.9167C5.80572 14.1251 5.22586 13.3577 4.76058 12.6147C4.2953 11.8716 3.94113 11.1563 3.69808 10.4688C3.45502 9.78133 3.3335 9.12508 3.3335 8.50008C3.3335 6.41675 4.00363 4.75703 5.34391 3.52091C6.68419 2.2848 8.23627 1.66675 10.0002 1.66675C11.7641 1.66675 13.3161 2.2848 14.6564 3.52091C15.9967 4.75703 16.6668 6.41675 16.6668 8.50008C16.6668 9.12508 16.5453 9.78133 16.3022 10.4688C16.0592 11.1563 15.705 11.8716 15.2397 12.6147C14.7745 13.3577 14.1946 14.1251 13.5002 14.9167C12.8057 15.7084 12.0071 16.5209 11.1043 17.3542C10.9516 17.4931 10.7779 17.5973 10.5835 17.6667C10.3891 17.7362 10.1946 17.7709 10.0002 17.7709ZM10.0002 10.0001C10.4585 10.0001 10.8509 9.83689 11.1772 9.5105C11.5036 9.18411 11.6668 8.79175 11.6668 8.33342C11.6668 7.87508 11.5036 7.48272 11.1772 7.15633C10.8509 6.82994 10.4585 6.66675 10.0002 6.66675C9.54183 6.66675 9.14947 6.82994 8.82308 7.15633C8.49669 7.48272 8.3335 7.87508 8.3335 8.33342C8.3335 8.79175 8.49669 9.18411 8.82308 9.5105C9.14947 9.83689 9.54183 10.0001 10.0002 10.0001Z" fill="#1B1B1B"/>
</g>
</svg>
