<svg width="24" height="24" viewBox="0 0 24 24" fill="none" xmlns="http://www.w3.org/2000/svg">
<mask id="mask0_317_193" style="mask-type:alpha" maskUnits="userSpaceOnUse" x="0" y="0" width="24" height="24">
<rect width="24" height="24" fill="#D9D9D9"/>
</mask>
<g mask="url(#mask0_317_193)">
<path d="M1.25 19.2501V8.5808C0.95 8.41663 0.708333 8.20039 0.525 7.93205C0.341667 7.66355 0.25 7.35288 0.25 7.00005C0.25 6.66155 0.41475 6.25738 0.74425 5.78755C1.07375 5.31772 1.49233 4.84047 2 4.3558C2.50767 4.84047 2.92625 5.31772 3.25575 5.78755C3.58525 6.25738 3.75 6.66155 3.75 7.00005C3.75 7.35288 3.65833 7.66355 3.475 7.93205C3.29167 8.20039 3.05 8.41663 2.75 8.5808V13.2501H5.25V11.0001C5.25 10.5962 5.38175 10.2266 5.64525 9.8913C5.90875 9.55614 6.268 9.35263 6.723 9.2808H7.06925C6.80258 8.9783 6.59942 8.64272 6.45975 8.27405C6.31992 7.90555 6.25 7.51422 6.25 7.10005C6.25 6.47672 6.39875 5.90022 6.69625 5.37055C6.99375 4.84072 7.39308 4.40438 7.89425 4.06155L11.1538 1.86555C11.4048 1.68988 11.6871 1.60205 12.0008 1.60205C12.3144 1.60205 12.5962 1.68988 12.8462 1.86555L16.1058 4.06155C16.6069 4.40438 17.0063 4.84072 17.3038 5.37055C17.6013 5.90022 17.75 6.47672 17.75 7.10005C17.75 7.51422 17.6801 7.90555 17.5403 8.27405C17.4006 8.64272 17.1974 8.9783 16.9307 9.2808H17.277C17.732 9.35263 18.0912 9.55614 18.3547 9.8913C18.6182 10.2266 18.75 10.5962 18.75 11.0001V13.2501H21.25V8.5808C20.95 8.41663 20.7083 8.20039 20.525 7.93205C20.3417 7.66355 20.25 7.35288 20.25 7.00005C20.25 6.66155 20.4148 6.25738 20.7443 5.78755C21.0738 5.31772 21.4923 4.84047 22 4.3558C22.5077 4.84047 22.9263 5.31772 23.2558 5.78755C23.5853 6.25738 23.75 6.66155 23.75 7.00005C23.75 7.35288 23.6583 7.66355 23.475 7.93205C23.2917 8.20039 23.05 8.41663 22.75 8.5808V19.2501C22.75 19.6591 22.6023 20.0113 22.3068 20.3068C22.0113 20.6023 21.659 20.7501 21.25 20.7501H14.1538C13.8978 20.7501 13.6831 20.6635 13.5098 20.4903C13.3366 20.317 13.25 20.1023 13.25 19.8463V17.0001C13.25 16.6526 13.1285 16.3574 12.8855 16.1146C12.6427 15.8716 12.3475 15.7501 12 15.7501C11.6525 15.7501 11.3573 15.8716 11.1145 16.1146C10.8715 16.3574 10.75 16.6526 10.75 17.0001V19.8463C10.75 20.1023 10.6634 20.317 10.4902 20.4903C10.3169 20.6635 10.1023 20.7501 9.84625 20.7501H2.75C2.341 20.7501 1.98875 20.6023 1.69325 20.3068C1.39775 20.0113 1.25 19.6591 1.25 19.2501ZM9.9 9.25005H14.1C14.6975 9.25005 15.2052 9.04105 15.623 8.62305C16.041 8.20522 16.25 7.69805 16.25 7.10155C16.25 6.72872 16.1654 6.38397 15.9962 6.0673C15.8269 5.75063 15.5898 5.49105 15.2848 5.28855L12 3.10205L8.71525 5.28855C8.41025 5.49105 8.17308 5.75063 8.00375 6.0673C7.83458 6.38397 7.75 6.72872 7.75 7.10155C7.75 7.69805 7.959 8.20522 8.377 8.62305C8.79483 9.04105 9.3025 9.25005 9.9 9.25005ZM2.75 19.2501H9.25V17.0001C9.25 16.2362 9.51725 15.5869 10.0518 15.0521C10.5863 14.5174 11.2353 14.2501 11.9988 14.2501C12.7624 14.2501 13.4118 14.5174 13.947 15.0521C14.4823 15.5869 14.75 16.2362 14.75 17.0001V19.2501H21.25V14.7501H18.75C18.341 14.7501 17.9888 14.6023 17.6933 14.3068C17.3978 14.0113 17.25 13.6591 17.25 13.2501V11.0001C17.25 10.9296 17.226 10.8702 17.178 10.8221C17.1298 10.7741 17.0705 10.7501 17 10.7501H7C6.9295 10.7501 6.87017 10.7741 6.822 10.8221C6.774 10.8702 6.75 10.9296 6.75 11.0001V13.2501C6.75 13.6591 6.60225 14.0113 6.30675 14.3068C6.01125 14.6023 5.659 14.7501 5.25 14.7501H2.75V19.2501Z" fill="#1C1B1F"/>
</g>
</svg>
