<svg width="24" height="24" viewBox="0 0 24 24" fill="none" xmlns="http://www.w3.org/2000/svg">
<mask id="mask0_317_190" style="mask-type:alpha" maskUnits="userSpaceOnUse" x="0" y="0" width="24" height="24">
<rect width="24" height="24" fill="#D9D9D9"/>
</mask>
<g mask="url(#mask0_317_190)">
<path d="M6.5 20.5V3.5H13C14.5192 3.5 15.8157 4.03683 16.8895 5.1105C17.9632 6.18433 18.5 7.48083 18.5 9C18.5 10.5192 17.9632 11.8157 16.8895 12.8895C15.8157 13.9632 14.5192 14.5 13 14.5H9.5V20.5H6.5ZM9.5 11.5H13.123C13.8105 11.5 14.3991 11.2553 14.8888 10.7658C15.3783 10.2761 15.623 9.6875 15.623 9C15.623 8.3125 15.3783 7.72392 14.8888 7.23425C14.3991 6.74475 13.8105 6.5 13.123 6.5H9.5V11.5Z" fill="#1C1B1F"/>
</g>
</svg>
