<svg width="26" height="26" viewBox="0 0 26 26" fill="none" xmlns="http://www.w3.org/2000/svg">
<mask id="mask0_317_199" style="mask-type:alpha" maskUnits="userSpaceOnUse" x="0" y="0" width="26" height="26">
<rect width="26" height="26" fill="#D9D9D9"/>
</mask>
<g mask="url(#mask0_317_199)">
<path d="M11.2623 21.3959H6.77051C6.5403 21.3959 6.34738 21.318 6.19174 21.1621C6.03592 21.0063 5.95801 20.8133 5.95801 20.5831C5.95801 20.3527 6.03592 20.1598 6.19174 20.0043C6.34738 19.8487 6.5403 19.7709 6.77051 19.7709H11.2623L10.3704 18.8793C10.2206 18.7292 10.1438 18.5407 10.1402 18.3135C10.1368 18.0866 10.2135 17.8945 10.3704 17.7375C10.5275 17.5806 10.7178 17.5021 10.9413 17.5021C11.165 17.5021 11.3554 17.5806 11.5123 17.7375L13.6727 19.8979C13.8684 20.0938 13.9663 20.3223 13.9663 20.5834C13.9663 20.8445 13.8684 21.073 13.6727 21.2689L11.5123 23.4293C11.3622 23.5792 11.1736 23.6559 10.9465 23.6595C10.7195 23.6629 10.5275 23.5862 10.3704 23.4293C10.2135 23.2722 10.1351 23.0819 10.1351 22.8584C10.1351 22.6348 10.2135 22.4445 10.3704 22.2875L11.2623 21.3959ZM5.95801 4.66677C5.95801 4.11951 6.14759 3.65629 6.52676 3.27712C6.90592 2.89796 7.36914 2.70837 7.9164 2.70837H18.0829C18.6302 2.70837 19.0934 2.89796 19.4726 3.27712C19.8518 3.65629 20.0413 4.11951 20.0413 4.66677V17.6042C20.0413 17.8344 19.9634 18.0274 19.8076 18.1832C19.6518 18.3389 19.4588 18.4167 19.2286 18.4167C18.9982 18.4167 18.8053 18.3389 18.6498 18.1832C18.4942 18.0274 18.4163 17.8344 18.4163 17.6042V16.4041C17.7149 15.9361 16.884 15.5712 15.9236 15.3094C14.9632 15.0476 13.9886 14.9167 12.9997 14.9167C12.0108 14.9167 11.0361 15.0476 10.0758 15.3094C9.11538 15.5712 8.28447 15.9361 7.58301 16.4041V17.6042C7.58301 17.8344 7.5051 18.0274 7.34928 18.1832C7.19346 18.3389 7.00045 18.4167 6.77024 18.4167C6.53985 18.4167 6.34692 18.3389 6.19147 18.1832C6.03583 18.0274 5.95801 17.8344 5.95801 17.6042V4.66677ZM7.58301 14.5376C8.42187 14.143 9.31282 13.8368 10.2559 13.6189C11.1989 13.4008 12.1135 13.2917 12.9997 13.2917C13.8858 13.2917 14.8004 13.4008 15.7435 13.6189C16.6865 13.8368 17.5775 14.143 18.4163 14.5376V4.66677C18.4163 4.58335 18.3816 4.50698 18.3121 4.43764C18.2427 4.36813 18.1664 4.33337 18.0829 4.33337H7.9164C7.83299 4.33337 7.75661 4.36813 7.68728 4.43764C7.61776 4.50698 7.58301 4.58335 7.58301 4.66677V14.5376ZM15.9788 21.3959C15.7486 21.3959 15.5556 21.318 15.3998 21.1621C15.2442 21.0063 15.1663 20.8133 15.1663 20.5831C15.1663 20.3527 15.2442 20.1598 15.3998 20.0043C15.5556 19.8487 15.7486 19.7709 15.9788 19.7709H19.2288C19.459 19.7709 19.652 19.8488 19.8076 20.0046C19.9634 20.1604 20.0413 20.3534 20.0413 20.5836C20.0413 20.814 19.9634 21.007 19.8076 21.1624C19.652 21.3181 19.459 21.3959 19.2288 21.3959H15.9788ZM13.001 11.8959C12.1737 11.8959 11.4702 11.6063 10.8904 11.0273C10.3105 10.4482 10.0205 9.74517 10.0205 8.91804C10.0205 8.09074 10.31 7.3872 10.8891 6.80744C11.4681 6.22749 12.1712 5.93752 12.9983 5.93752C13.8256 5.93752 14.5292 6.22704 15.1089 6.80608C15.6889 7.38512 15.9788 8.0883 15.9788 8.9156C15.9788 9.74273 15.6893 10.4463 15.1103 11.0262C14.5312 11.606 13.8282 11.8959 13.001 11.8959ZM12.9997 10.2709C13.3761 10.2709 13.6959 10.1393 13.959 9.87625C14.2222 9.613 14.3538 9.29314 14.3538 8.91669C14.3538 8.54041 14.2222 8.22065 13.959 7.9574C13.6959 7.69415 13.3761 7.56252 12.9997 7.56252C12.6232 7.56252 12.3035 7.69415 12.0404 7.9574C11.7771 8.22065 11.6455 8.54041 11.6455 8.91669C11.6455 9.29314 11.7771 9.613 12.0404 9.87625C12.3035 10.1393 12.6232 10.2709 12.9997 10.2709Z" fill="#1C1B1F"/>
</g>
</svg>
