<svg width="24" height="24" viewBox="0 0 24 24" fill="none" xmlns="http://www.w3.org/2000/svg">
<mask id="mask0_317_202" style="mask-type:alpha" maskUnits="userSpaceOnUse" x="0" y="0" width="24" height="24">
<rect width="24" height="24" fill="#D9D9D9"/>
</mask>
<g mask="url(#mask0_317_202)">
<path d="M5.30775 20.5C4.80258 20.5 4.375 20.325 4.025 19.975C3.675 19.625 3.5 19.1974 3.5 18.6923V15.75C3.5 15.5372 3.57183 15.359 3.7155 15.2155C3.859 15.0718 4.03717 15 4.25 15C4.46283 15 4.641 15.0718 4.7845 15.2155C4.92817 15.359 5 15.5372 5 15.75V18.6923C5 18.7692 5.03208 18.8398 5.09625 18.9038C5.16025 18.9679 5.23075 19 5.30775 19H8.25C8.46283 19 8.641 19.0718 8.7845 19.2155C8.92817 19.359 9 19.5372 9 19.75C9 19.9628 8.92817 20.141 8.7845 20.2845C8.641 20.4282 8.46283 20.5 8.25 20.5H5.30775ZM18.6923 20.5H15.75C15.5372 20.5 15.359 20.4282 15.2155 20.2845C15.0718 20.141 15 19.9628 15 19.75C15 19.5372 15.0718 19.359 15.2155 19.2155C15.359 19.0718 15.5372 19 15.75 19H18.6923C18.7692 19 18.8398 18.9679 18.9038 18.9038C18.9679 18.8398 19 18.7692 19 18.6923V15.75C19 15.5372 19.0718 15.359 19.2155 15.2155C19.359 15.0718 19.5372 15 19.75 15C19.9628 15 20.141 15.0718 20.2845 15.2155C20.4282 15.359 20.5 15.5372 20.5 15.75V18.6923C20.5 19.1974 20.325 19.625 19.975 19.975C19.625 20.325 19.1974 20.5 18.6923 20.5ZM3.5 8.25V5.30775C3.5 4.80258 3.675 4.375 4.025 4.025C4.375 3.675 4.80258 3.5 5.30775 3.5H8.25C8.46283 3.5 8.641 3.57183 8.7845 3.7155C8.92817 3.859 9 4.03717 9 4.25C9 4.46283 8.92817 4.641 8.7845 4.7845C8.641 4.92817 8.46283 5 8.25 5H5.30775C5.23075 5 5.16025 5.03208 5.09625 5.09625C5.03208 5.16025 5 5.23075 5 5.30775V8.25C5 8.46283 4.92817 8.641 4.7845 8.7845C4.641 8.92817 4.46283 9 4.25 9C4.03717 9 3.859 8.92817 3.7155 8.7845C3.57183 8.641 3.5 8.46283 3.5 8.25ZM19 8.25V5.30775C19 5.23075 18.9679 5.16025 18.9038 5.09625C18.8398 5.03208 18.7692 5 18.6923 5H15.75C15.5372 5 15.359 4.92817 15.2155 4.7845C15.0718 4.641 15 4.46283 15 4.25C15 4.03717 15.0718 3.859 15.2155 3.7155C15.359 3.57183 15.5372 3.5 15.75 3.5H18.6923C19.1974 3.5 19.625 3.675 19.975 4.025C20.325 4.375 20.5 4.80258 20.5 5.30775V8.25C20.5 8.46283 20.4282 8.641 20.2845 8.7845C20.141 8.92817 19.9628 9 19.75 9C19.5372 9 19.359 8.92817 19.2155 8.7845C19.0718 8.641 19 8.46283 19 8.25ZM12 16.5C10.7513 16.5 9.68917 16.0622 8.8135 15.1865C7.93783 14.3108 7.5 13.2487 7.5 12C7.5 10.7513 7.93783 9.68917 8.8135 8.8135C9.68917 7.93783 10.7513 7.5 12 7.5C13.2487 7.5 14.3108 7.93783 15.1865 8.8135C16.0622 9.68917 16.5 10.7513 16.5 12C16.5 13.2487 16.0622 14.3108 15.1865 15.1865C14.3108 16.0622 13.2487 16.5 12 16.5ZM12 15C12.8333 15 13.5417 14.7083 14.125 14.125C14.7083 13.5417 15 12.8333 15 12C15 11.1667 14.7083 10.4583 14.125 9.875C13.5417 9.29167 12.8333 9 12 9C11.1667 9 10.4583 9.29167 9.875 9.875C9.29167 10.4583 9 11.1667 9 12C9 12.8333 9.29167 13.5417 9.875 14.125C10.4583 14.7083 11.1667 15 12 15Z" fill="#1C1B1F"/>
</g>
</svg>
