<svg width="24" height="24" viewBox="0 0 24 24" fill="none" xmlns="http://www.w3.org/2000/svg">
<mask id="mask0_317_205" style="mask-type:alpha" maskUnits="userSpaceOnUse" x="0" y="0" width="24" height="24">
<rect width="24" height="24" fill="#D9D9D9"/>
</mask>
<g mask="url(#mask0_317_205)">
<path d="M5.82715 20.8462V14.5H5.2309C4.9749 14.5 4.76023 14.4134 4.5869 14.2402C4.41373 14.0669 4.32715 13.8522 4.32715 13.5962V8.99995C4.32715 8.51412 4.49732 8.10095 4.83765 7.76045C5.17798 7.42012 5.59115 7.24995 6.07715 7.24995H8.92315C9.40915 7.24995 9.82232 7.42012 10.1626 7.76045C10.503 8.10095 10.6731 8.51412 10.6731 8.99995V13.5962C10.6731 13.8522 10.5866 14.0669 10.4134 14.2402C10.2401 14.4134 10.0254 14.5 9.7694 14.5H9.17315V20.8462C9.17315 21.1022 9.08657 21.3169 8.9134 21.4902C8.74007 21.6634 8.5254 21.75 8.2694 21.75H6.7309C6.4749 21.75 6.26023 21.6634 6.0869 21.4902C5.91373 21.3169 5.82715 21.1022 5.82715 20.8462ZM7.50015 6.2307C6.98865 6.2307 6.55307 6.05087 6.1934 5.6912C5.83373 5.3317 5.6539 4.8962 5.6539 4.3847C5.6539 3.87304 5.83373 3.43745 6.1934 3.07795C6.55307 2.71829 6.98865 2.53845 7.50015 2.53845C8.01165 2.53845 8.44723 2.71829 8.8069 3.07795C9.16656 3.43745 9.3464 3.87304 9.3464 4.3847C9.3464 4.8962 9.16656 5.3317 8.8069 5.6912C8.44723 6.05087 8.01165 6.2307 7.50015 6.2307ZM15.2501 20.8462V16H13.7501C13.4553 16 13.2159 15.8785 13.0319 15.6355C12.8479 15.3926 12.8046 15.1237 12.9021 14.8287L14.8194 8.42695C14.9336 8.04912 15.1441 7.75854 15.4511 7.5552C15.7581 7.3517 16.1078 7.24995 16.5001 7.24995C16.8925 7.24995 17.2421 7.3517 17.5491 7.5552C17.8561 7.75854 18.0667 8.04912 18.1809 8.42695L20.0981 14.8287C20.1956 15.1237 20.1524 15.3926 19.9684 15.6355C19.7844 15.8785 19.545 16 19.2501 16H17.7501V20.8462C17.7501 21.1022 17.6636 21.3169 17.4904 21.4902C17.3171 21.6634 17.1024 21.75 16.8464 21.75H16.1539C15.8979 21.75 15.6832 21.6634 15.5099 21.4902C15.3367 21.3169 15.2501 21.1022 15.2501 20.8462ZM16.5001 6.2307C15.9886 6.2307 15.5531 6.05087 15.1934 5.6912C14.8337 5.3317 14.6539 4.8962 14.6539 4.3847C14.6539 3.87304 14.8337 3.43745 15.1934 3.07795C15.5531 2.71829 15.9886 2.53845 16.5001 2.53845C17.0116 2.53845 17.4472 2.71829 17.8069 3.07795C18.1666 3.43745 18.3464 3.87304 18.3464 4.3847C18.3464 4.8962 18.1666 5.3317 17.8069 5.6912C17.4472 6.05087 17.0116 6.2307 16.5001 6.2307Z" fill="#1C1B1F"/>
</g>
</svg>
